<svg version="1.2" xmlns="http://www.w3.org/2000/svg" viewBox="0 0 4910 1345" width="139" height="38">
	<title>Board iboxify 3</title>
	<style>
		tspan { white-space:pre } 
		.s0 { fill: #013076 } 
		.s1 { fill: #0192d1 } 
	</style>
	<g id="Folder 4">
		<g id="Layer copy 27">
			<path id="Layer" class="s0" d="m2938.8 1.5c-5.7 0.8-13.6 2.5-17.2 3.8-3.6 1-19.2 4.2-34.9 6.7-15.7 2.6-31.2 6.2-34.6 7.9-3.4 1.7-11.4 5.1-17.8 7.2-6.5 2.3-13.3 5.3-15 7-1.9 1.5-7.2 4-11.9 5.5-4.6 1.5-11.8 4.7-15.9 7.4-4.2 2.6-12.7 7.4-18.6 10.4-6.2 3.2-11.7 7-12.5 8.7-0.6 1.7-2.8 3.2-4.9 3.2-2.1 0-5.9 2.5-8.2 5.5-2.4 3.1-8.5 8.2-13.4 11.4-12.1 7.6-58.1 54.3-65.5 66.3-3.1 5.3-7 10.2-8.2 11-1.1 0.7-4.1 4.9-6.6 9.2-2.3 4.2-8.1 13.9-12.5 21.6-12.1 20.1-28.8 55.1-30.7 63.5-0.9 4.1-3.2 10.8-5.3 14.9-2.1 4-5.5 15.4-7.4 25.4-1.9 10-6 28-9.2 40.3-5.5 22-5.5 23-5.5 96.4 0 69.9 0.3 74.8 4.5 86.8 2.5 7 6.1 21.2 8 31.8 1.9 10.4 5.3 22.7 7.5 27.6 2.1 4.6 4.8 12.7 6.3 18 1.5 5.3 4.7 13.3 7.4 18 2.6 4.6 6.8 14.8 9.4 22.7 2.5 7.6 6.1 15.2 7.8 16.7 1.9 1.5 5.3 6.6 7.6 11.2 2.4 4.7 5.7 9.8 7.2 11.5 1.7 1.7 5.1 6.7 7.4 11.4 2.4 4.7 7.9 12.5 12.3 17.2 4.5 4.8 10.2 12.3 13 16.3 6.9 10.4 27.7 32.6 32.4 34.3 1.9 0.9 4.2 3 4.8 4.9 0.9 1.7 3 3.2 5.1 3.2 2.1 0 6 2.7 8.5 6.3 2.5 3.4 5.7 6.4 7.2 6.4 1.5 0 6.2 3.2 10.2 7.2 4 4 11.2 9.1 16.1 11.6 4.6 2.4 12.1 6.8 16.3 9.8 4.4 2.7 11 5.7 14.8 6.5 4.1 0.7 8.7 3 10.8 5.3 1.9 2.2 7 4.9 11.3 6.2 4.2 1.3 12.5 4.7 18.2 7.4 5.9 2.8 20.5 7.2 32.8 9.5 12.3 2.6 24.8 6 27.8 7.7 9.1 4.6 77.5 9.9 107.8 8.2 35.8-1.7 82-7 86.9-9.5 2.3-1.3 14.4-4.7 26.9-7.6 12.5-3 25.2-6.8 27.8-8.5 2.7-1.9 9.9-5.1 15.9-7 6.1-2.1 14.8-6.4 19.3-9.5 4.4-3 9.5-5.5 11-5.5 1.5 0 5.3-2.4 8.7-5.1 3.1-2.8 11.8-7.9 19-11.7 7.2-3.6 19.1-11.8 26.5-18.4 7.2-6.6 15.9-13.2 19.1-14.8 2.9-1.7 6.1-4.9 7-7.3 0.8-2.3 4.2-5.7 7.6-7.4 3.4-1.9 6.1-4.2 6.1-5.5 0-1 5.6-8.2 12.3-15.7 19.5-22 25-29.2 29.7-38.3 2.5-4.9 6.8-11.4 9.5-14.8 2.8-3.4 6.2-9.6 7.9-13.6 1.5-4 4.6-10.4 6.8-14.2 2.1-3.6 6.7-15 10.1-25.2 3.4-10 7.2-19.5 8.5-21 1.3-1.5 4-11.4 6.6-22.2 2.3-10.8 5.7-22.5 7.4-26.1 4-7.4 7-55.1 7.2-113.4v-36.4h-209.6c-115.2 0-211 0.6-212.9 1.3-3 1-3.4 5.7-3.4 30.3 0 15.9 0.6 32.4 1.3 36.8 2.5 14.9-3 14.2 173.5 16.4 86.2 1 157.2 1.9 157.6 1.9 1.7 0.4-2.5 32.6-5 37.9-1.5 3.2-4.5 14.2-6.4 24.8-4.2 23.9-15.9 48.5-41.1 87.9-14.8 23.1-63.1 71.6-79.2 79.7-6.2 3.2-13 7.2-15.3 9.3-2.3 2.1-9.3 5.9-15.5 8.3-6.1 2.5-13.3 5.7-15.9 7.4-2.5 1.7-11.2 4.6-19.5 6.6-8 1.9-17.1 5-20.1 7.2-4.6 2.9-14.2 3.3-80.5 3.3-59.5 0-76.3-0.6-80.3-2.9-2.8-1.5-13.6-5.1-24.2-7.9-10.6-2.9-20.3-6.1-21.8-7.4-2.9-2.5-20.7-12.1-36.2-19.5-5.9-2.9-16.1-9.3-22.5-14-6.1-4.8-12.1-8.6-12.7-8.6-4 0-38.1-38.4-48.1-54.1-6.3-10.1-13.3-19.7-15.2-21.6-1.9-1.7-5.3-8-7.2-14.2-2-5.9-5.3-12.7-7.5-15-2.1-2.4-5.5-10.6-7.4-18-1.9-7.7-5.1-16.8-7.2-20.2-6.8-11.4-11.6-46.6-14-101.7-2.1-54.6 5.5-136 13.8-147.4 2.3-3 5.3-9.8 6.6-14.7 1.5-5 5.3-14.4 8.7-20.7 3.4-6.4 6.1-13 6.1-14.4 0-1.5 2.3-5.3 5.1-8.7 2.7-3.2 7-10 9.5-15.1 2.6-5.1 6-9.5 7.7-10.3 1.9-0.7 4.8-4.5 6.7-8.7 5.1-10.8 48.6-53.2 66.8-65.3 8.5-5.5 21.6-12.5 29.2-15.3 7.6-2.7 15.3-6.1 17-7.8 1.7-1.5 9.3-4.4 16.9-6.6 7.6-2.1 17.6-5.7 22.3-8 7.8-4.2 12.7-4.5 69.3-5.3 58.4-0.6 92.3 1.5 97.8 5.9 1.3 1.1 9.8 4.3 18.7 7.2 9.1 3 19.1 7.2 22.2 9.6 3.4 2.3 8.3 4.8 11.3 5.7 8.7 2.5 37.1 19.7 45.3 27.5 4.3 3.8 9.5 7.7 11.9 8.5 6.8 2.1 39.6 40.9 47.7 56.4 4.2 8 8.9 15.9 10.5 17.6 2 1.6 5.1 7.4 7.5 12.9 6.5 15.4 10.8 16.5 66.9 15.4 30.5-0.4 48.1-1.4 49.6-2.9 1.7-1.7 1.5-4-0.8-8.5-1.7-3.4-5.1-13.6-7.5-22.9-2.5-9.1-7.8-23.5-11.8-32-4.1-8.5-7.4-16.3-7.4-17.3 0-1.3-2-3.9-4.3-6-2.5-2.3-7.4-9.5-11-16.3-3.6-6.8-7.4-12.3-8.3-12.3-1 0-3.8-3.8-6.1-8.3-2.3-4.6-8.3-11.8-13.4-16.1-5.3-4.2-11.6-11.4-14.4-15.8-2.7-4.5-7.2-8.7-9.7-9.4-2.6-0.8-5.7-3.1-7-5.5-1.3-2.3-7.6-7.8-14.4-12.5-6.6-4.4-14-10.1-16.1-12.7-2.3-2.3-5.7-4.4-8.1-4.4-2.1 0-3.8-0.9-3.8-2.2 0-1-4-4.6-8.9-7.8-5.1-3.2-13.3-8.3-18.4-11.7-5.3-3.1-11-5.9-12.9-5.9-1.9 0-10.4-3.4-18.9-7.6-8.5-4-18.9-8.1-23.1-8.7-4.2-0.6-10.6-3-14.2-4.9-7.2-4.4-19.9-7.2-52.7-11.6-12.8-1.9-24.6-4.5-26.3-5.7-3.6-3-97.1-4.5-113.8-1.7z"/>
			<path id="Layer" class="s0" d="m64.1 9.3l-48.3 0.6v420.4c0 334.4 0.7 420.6 2.8 421.5 1.3 0.4 47.4 1 102.5 1.2l100 0.4-0.2-248.5c0-146 0.7-250.4 1.7-253.4 1.9-4.5 2.4-4.5 6.8-1.5 2.6 1.9 7.2 7.8 10.4 13.4 3 5.5 7.2 11.8 9.3 14.2 1.9 2.3 6 9.1 9.1 15.2 3 5.9 7.9 13.4 10.8 16.3 3 3 5.3 6.8 5.3 8.5 0 1.7 1.9 4.4 4.3 6.1 2.5 1.7 6.5 7 9.1 11.7 11 20.1 17.8 31.1 22.9 37.3 2.9 3.6 7.2 9.9 9.3 14 2.1 4 9.1 14.8 15.7 23.7 6.5 8.9 16.7 24.2 22.4 33.5 6 9.5 12.3 19.1 14.4 21.4 1.9 2.3 6 9.3 8.9 15.7 2.8 6.3 6.2 11.6 7.2 11.6 1.3 0 4.3 3.8 6.8 8.7 2.3 4.9 8.5 14 13.8 20.3 5.1 6.2 11.6 16.1 14.6 21.7 2.8 5.7 7.4 12.9 10.2 16.3 2.7 3.4 7.2 9.9 9.7 14.6 5.3 9.7 13.4 21.6 18 26.9 1.9 2.1 6.2 9.1 9.6 15.9 3.4 6.8 8.7 15 11.6 18.2 3 3.2 5.5 7.2 5.5 8.7 0 1.5 2.6 4.9 5.5 7.8 3 2.8 7.7 9.6 10.4 14.9 2.8 5.3 6.6 10.8 8.3 12.3 1.9 1.7 3.4 4 3.4 5.5 0 1.7 3.2 7.2 7.2 12.3 4 5.3 8.9 12.7 11 16.7 1.9 3.8 4.9 7.8 6.4 8.7 1.7 0.8 4.8 5.3 7.2 9.7 2.1 4.5 6.5 11.1 9.5 14.9l5.7 6.5h101.5 101.5v-421.6-421.7h-101.7-101.7l-0.2 203.9c-0.2 225-1.5 300.8-5.5 304.9-1.9 1.9-3.4 0.4-7-5.8-2.3-4.6-9.6-15.4-15.9-24.1-6.4-8.7-13.1-19.3-15.3-23.3-2.1-4-4.6-7.9-5.5-8.1-0.8-0.4-4-5.7-7.2-11.6-2.9-6.2-7.8-14-10.6-17.4-7.6-9.3-14.6-19.9-20.5-30.9-2.8-5.3-8.3-13.6-12.3-18.5-14-17.8-16.1-20.7-19.5-29-2.1-4.7-5.3-10.4-7.4-12.7-2.1-2.3-6.6-9.1-10-14.8-3.2-6-8.5-14-11.6-18-3.2-4.1-6.4-9.6-7-12.1-0.9-2.4-2.8-5.1-4.5-5.7-1.7-0.7-5.5-6.2-8.2-12.3-2.8-6.2-7.5-13.6-10.6-16.4-3-2.9-5.5-6.3-5.5-7.6 0-1.3-2.4-4.6-5.3-7.4-3-2.7-5.3-5.9-5.3-7.2 0-1.3-3.4-7.2-7.7-12.9-4-6-9.5-14.6-11.8-19.7-2.6-4.9-5.3-8.9-6.4-8.9-0.8 0-4.4-5.5-7.8-12.3-3.4-6.6-8.1-14-10.6-16.1-2.6-2.4-4.5-5.1-4.5-6.6 0-1.5-1.9-4.2-4.4-6.6-2.6-2.1-7.9-10.1-11.7-17.8-7.4-13.9-14-24.1-22.2-34.1-2.6-3.1-6.2-9.3-8.3-13.7-1.9-4.7-5.1-9.6-7-11.3-2.1-1.5-6.1-7.4-9.3-13.1-3-5.7-6.4-10.4-7.2-10.4-1.1 0-4.7-5.5-8.1-12.3-3.3-6.5-8.2-14.4-10.8-17.4-2.5-2.9-5.3-6.5-6.3-8.2-2.1-4-33.9-6.6-77.4-6-18.6 0.3-55.5 0.7-82 0.9z"/>
			<path id="Layer" fill-rule="evenodd" class="s0" d="m1284.2 189.6c2.3 1.3 12.3 4.2 22 6.8 10 2.5 20.4 5.9 22.9 7.8 2.8 1.7 10.4 4.9 16.7 7.2 6.4 2.2 14.4 6.4 17.8 9.4 3.6 2.9 7.9 5.3 9.6 5.3 1.7 0 6.1 2.9 9.7 6.3 3.8 3.6 10.2 8.1 14.2 10 4.3 1.9 21.6 17.3 38.6 34.3 23.1 23.3 32.2 33.9 36.2 42.6 3.2 6.6 7.6 13.5 10 15.7 2.5 2.3 4.4 5.3 4.4 7 0 1.4 2.8 7.8 6.2 13.9 3.4 6 7.6 16.8 9.5 23.8 1.7 7 5.5 19.3 8.5 27.5 3.2 9.6 5.9 24.4 7.6 41.8 3 31.5 3.8 94 1.5 100.6l-1.7 4.5-224 0.8c-254.2 0.6-236.2-0.6-237.3 17.4-1.9 29.6 11.7 67.8 32 89.6 6.8 7.2 14.4 13.8 17 14.6 2.5 0.7 6.5 3 8.9 5.1 2.3 1.9 10.8 7 19 10.8l14.9 7.2h33.9c26.2-0.2 35.3-0.8 40.2-3.4 3.6-1.9 11.9-5.9 18.5-9.1 14.6-7.2 38.3-31.1 46.1-46.8 8.9-17.6 4.3-17 119.3-17.6l101.1-0.6v7.2c0 9.9-7.6 37.9-13.6 49.8-2.9 5.5-6.7 13.3-8.6 17.3-5.5 11.9-16.6 30.3-21.7 36.1-2.5 2.9-11.4 13.1-19.7 22.8-25.8 29.7-70.5 64.5-93.2 72.1-5.3 1.7-11 4.4-12.7 5.9-4.5 3.6-42.2 17.2-58.7 21-7.2 1.7-23.9 4-36.9 5.3-13.1 1.3-28.4 3.8-34.1 5.7-8.7 2.8-12.3 3-23.5 0.9-7.2-1.5-22.7-3.6-34.3-4.7-35.2-3.4-59.3-7.8-73.5-13.3-7.5-3-18.7-6.8-25-8.7-6.4-1.9-13.2-4.9-14.9-6.4-1.7-1.5-7.2-3.8-12.1-5.1-4.8-1.2-11.6-4.6-14.8-7.2-3.2-2.7-9.7-7.2-14.4-9.7-12.3-7-22.2-15.5-44.9-38.4-26.5-26.5-26.9-26.9-37.1-42.6-15.5-23.7-22-34.7-25.8-44.5-2.2-5.1-5.6-12.3-7.9-15.9-4.2-7.2-12.9-37-17.8-61.2-4.6-24.8-8-80.3-6.6-111.2 1.7-33.3 6.6-73.6 9.6-77.2 1-1.2 3.8-10.1 6.3-19.7 2.4-9.5 5.8-19.7 7.7-22.4 1.7-2.8 4.6-9.8 6.3-15.7 1.7-5.9 6-14.2 9.3-18.4 3.4-4.3 6.8-10.6 7.7-14 0.6-3.4 2.7-7.2 4.6-8.7 1.7-1.5 6.4-7.6 10-13.6 9.5-14.8 39.4-45.7 54.9-57 7.2-5.3 16.1-11.8 19.7-14.8 3.8-3 10.4-7.2 14.8-9.1 4.7-2.1 11.7-5.9 15.7-8.5 4-2.3 12.5-5.9 18.6-7.8 6.4-1.7 14.4-5.1 18-7.4 3.9-2.2 14.9-5.8 24.8-7.9 10-1.9 19.5-4.9 21.2-6.3 3.2-2.6 30.7-6.6 56.2-8.1 36.4-2.3 112.5 3.2 123.1 8.9zm-90.9 147.5c-18.5-0.7-26.9 0.4-26.9 3.2 0 1-6 2.9-13.2 4.2-24.1 4.7-45.7 17.2-61.8 35.6-14.7 16.7-19.1 23.3-22.3 32.2-1.3 4-3.8 8.9-5.5 10.8-2.5 2.8-9.5 34.8-9.5 43.7 0 2.5 21.4 2.9 130.3 2.9h130.3v-18.2c0-13.1-1.1-20.3-4-26.9-2.2-4.9-4.7-12.3-5.5-16.3-3.4-16.6-16.6-32.9-36.9-46-13.1-8.5-17.2-10.2-37.3-15.9-8.1-2.1-16.1-5.1-17.6-6.4-1.5-1.4-10.6-2.7-20.1-2.9z"/>
			<path id="Layer" class="s0" d="m1810.1 185.2c-10.2 1.4-10.8 5.3-3.4 17.5 3.8 6.2 9.9 14.7 13.6 18.9 3.6 4.2 7.2 9.8 8 12.3 0.8 2.3 2.8 5.1 4.5 5.7 1.6 0.7 4.6 4.3 6.5 8.1 1.9 3.8 7.2 11.8 11.9 17.8 4.4 5.9 8 11.6 8 12.9 0 1 1.9 3.8 4.5 6.1 2.5 2.2 6.1 7.5 8.3 11.7 2.1 4 5.5 8.9 7.4 10.4 1.9 1.7 5.9 7.4 8.7 13.1 2.7 5.5 6.1 10.2 7.2 10.2 1 0 3.8 3.6 6.1 8.2 2.3 4.5 5.5 8.7 7 9.4 1.7 0.4 5.5 6.1 8.7 12.5 3.2 6.1 9.5 15.9 14.2 21.6 8.7 10.4 24.3 32.8 34.1 48.7 3.2 5.1 12.7 18.4 21.4 30.1 22.5 29.9 35.4 50.2 36.9 57.8 1.4 6.8-4.1 18.3-15.9 34.2-3 4-6.4 8.9-7.7 11-1 1.9-8.9 12.9-17.1 24.3-8.1 11.5-17 24.2-19.5 28.2-2.3 4.3-6.4 10-8.9 12.5-2.3 2.8-4.3 6-4.3 7.2 0 1.1-3.1 5.8-6.7 10-9.6 10.8-25 33-25 35.4 0 1-2.8 4.6-6.4 8-3.4 3.4-6.3 7-6.3 8.1 0 1-4.5 7.8-9.8 15-5.5 7-10.6 15.1-11.6 17.6-1.1 2.8-2.8 4.9-3.9 4.9-1 0-5.7 6.3-10.3 14.4-4.7 7.8-10.4 16.1-13 18.2-2.5 2.3-4.4 5.3-4.4 6.6 0 1.5-1.5 3.8-3.2 5.3-4 3.2-15.9 20.7-15.9 23.1 0 1-2.3 4-5.1 6.8-2.7 2.7-9.7 13.1-15.9 22.8-8.2 13.6-10.3 18.3-8.2 19.5 1.5 1.1 50.8 1.9 109.3 1.9 122.9 0 112.7 1.7 126.7-21.8 8.5-14 12.9-20.3 23.1-32.8 3.6-4.3 8.3-11.3 10.4-15.3 2.1-4 6.1-9.7 8.7-12.7 2.7-3 6.3-8.3 8.2-12.1 1.9-3.6 7.2-11 11.9-16.5 4.7-5.3 8.5-10.6 8.5-11.7 0-0.8 5.1-8.4 11.2-16.7 5.9-8.3 12.7-17.4 14.8-20.1 3.2-4.5 4.5-5.1 8.5-3.2 2.8 1.3 8.1 7 12.1 13.1 4 6 10 13.8 12.9 17.4 3 3.4 7.9 10.8 11 16.3 3.2 5.5 9.6 14.2 14 19.5 4.5 5.1 11.3 14.6 14.9 20.8 8.4 14.2 19 29.4 29.6 43 4.5 5.7 11.5 15.7 15.1 21.6l7 11.2 101.9-0.2c56.1 0 105.7-0.6 110.4-1.5 12.3-2.1 12-7-0.9-20.5-5.9-6.4-12.7-15.7-14.8-20.8-2.3-5.3-5.3-10.1-6.6-11-1.3-0.8-6.8-8.3-12.1-16.7-5.3-8.3-13.7-20-18.8-26.1-5.1-5.9-9.3-11.9-9.3-13.3 0-1.3-2.6-4.9-5.8-8.1-3.1-3.2-8.6-10.6-12-16.5-12.8-21.2-19.5-31.2-28.9-43.9-5.3-6.8-12-16.5-15.4-21.4-3.2-4.6-6.8-9.1-8.1-9.3-1-0.4-4.4-5.5-7.2-11.2-2.9-5.5-8-13.6-11.6-17.4-3.4-4-6.4-8.3-6.4-9.3 0-1.1-3.4-5.1-7.4-9.1-4-4.1-7.4-8.3-7.4-9.6 0-1.5-1.9-4.9-4.5-7.6-2.5-2.8-6.5-9.3-9.3-14.6-2.7-5.3-7-11.5-9.5-13.8-2.6-2.3-6.6-7.8-8.9-12.3-2.1-4.4-5.3-8.5-7-9.3-5.3-1.9-3.6-11.9 4.2-24 4-6.3 7.4-12.7 7.4-13.9 0-1.5 1.5-3 3.2-3.6 1.7-0.9 4.5-4.7 6.2-8.5 1.7-4 6.3-11.2 10.6-15.9 4.2-4.7 7.6-9.8 7.6-11.5 0-1.6 3.4-6.1 7.4-9.9 4-3.6 7.4-7.9 7.4-9.3 0-1.7 2.6-5.1 5.5-8.1 3-2.7 8.1-9.7 11.5-15.7 3.4-5.9 8.2-12.7 10.6-14.8 2.3-2.1 4.2-4.9 4.2-6.4 0-1.4 1.9-4.2 4.2-6.3 5.5-4.9 19.3-25 25-36.5 2.4-4.4 6-9.7 7.9-11.2 1.9-1.7 5.7-7.2 8.4-12.5 2.6-5.3 7-11.6 9.6-14 2.7-2.3 6.1-7.2 7.8-10.6 1.7-3.6 9.1-15 16.6-25.4 7.4-10.6 17.7-25.2 22.8-32.8 5.3-7.7 11.5-15.7 14-17.8 2.6-2.4 4.5-5.1 4.5-6.6 0-1.3 3.8-7.6 8.4-14 8.1-10.4 8.3-11.6 4.9-14-2.7-2.1-27.7-2.7-110.8-2.7h-107.4l-6.6 8.2c-3.8 4.7-6.8 9.4-6.8 10.6 0 1.1-5.7 8.9-12.7 17.2-7 8.3-12.7 16.3-12.7 17.8 0 1.5-1.9 4.4-4.2 6.6-2.4 2.1-6.8 8.2-9.8 13.5-5.5 9.1-8 13-22.4 30.7-3.4 3.9-6 7.9-6 8.5 0 0.7-4 6.4-8.9 12.7-5.1 6.4-11.2 15.1-14 19.5-2.7 4.7-7.6 11.5-10.8 15.3-7.2 8.5-11.4 7.4-17.1-4-2.4-4.5-5.5-8.9-7.2-9.8-1.5-0.8-4.9-5.7-7.2-10.4-2.6-4.8-7-11.6-10-15.2-3-3.4-5.3-7-5.3-7.9 0-0.8-3.4-5.3-7.4-9.7-4-4.7-7.4-9.5-7.4-11.2 0-1.5-1.5-4.3-3.4-5.8-1.9-1.7-7.2-8.9-11.9-16.1-4.6-7.4-9.3-13.3-10.4-13.3-1 0-2.9-2.6-4.2-5.7-1.1-3.2-4-7.7-6.4-10-2.3-2.5-8.2-10.4-12.9-17.8-12.7-19.9-12.9-19.9-57.4-21.8-39.8-1.7-161.2-1.9-171.4-0.4z"/>
			<path id="Layer" fill-rule="evenodd" class="s0" d="m3852 189.6c2.4 1.3 14.2 3.4 26.5 4.7 12.3 1.2 27.6 4.2 33.9 6.5 6.4 2.4 17.4 6.2 24.4 8.3 19.7 6.4 51.9 22.9 63.5 32.8 6 4.9 13.6 10.4 17 12.3 7.6 3.8 50.6 50.3 55.5 59.6 1.7 3.6 4.9 8.2 6.8 10.4 4.2 5 13.8 21.1 19.3 33.2 2.5 5.3 6.3 13.4 8.4 18.2 4.9 10.2 9.6 31.6 13 58.5 1.2 10.8 3.4 21 4.6 22.7 1.7 1.9 2.6 14.4 2.6 37.1 0 37.3-2.6 47.9-12.1 51-2.8 0.9-119.1 2.2-258.5 3-190.3 0.9-254.3 1.9-256.2 3.8-1.2 1.3-2.9 9.1-3.6 17.4-0.8 11.7 0 18 3.4 28.4 2.6 7.2 6.2 20.3 8.1 29 1.9 8.7 4.6 17.4 6.1 19.1 1.5 1.7 4.2 8.5 5.9 14.8 2 6.4 6.2 15.9 9.6 21.2 14.8 23.1 56.1 61 73.1 67 4.6 1.7 10.1 4.4 12.1 6.1 11 10 58.2 15.1 118.6 12.9 38.4-1.2 58.1-4.6 67.8-11.4 3-2.1 10-5.5 15.7-7.8 5.9-2.2 12.7-6.2 15.3-8.9 2.5-2.6 5.7-4.9 6.9-4.9 4.1 0 33.7-31 38.2-39.9 2.3-4.4 5.5-9.3 7.4-10.8 1.7-1.4 5.7-10.3 8.9-19.9 3.2-9.5 7-19.3 8.5-21.6 1.7-2.3 2.9-5.7 2.9-7.6 0-1.9 1.7-4.5 3.9-5.3 5-2.6 104.6-3.6 108.2-1.1 4.3 2.8-4 41.8-12.1 57.4-3.3 6.4-6.7 14.7-7.6 18.5-0.8 3.6-3.4 8.2-5.5 10.2-2.3 2.1-5.1 6.9-6.3 10.8-1.5 4-4.3 8.2-6.4 9.3-2.3 1.3-5.7 5.5-7.6 9.5-5.5 11.7-29.5 38.4-42.4 47.1-6.4 4.4-17.6 12.5-24.8 17.8-15 11.2-52.8 29.8-68.2 33.9-5.7 1.4-14.4 4.2-19.1 6.1-29 12.3-145.6 15.5-188.6 5.3-17.1-4-54-16.5-60.6-20.6-2.7-1.9-8.9-4.4-13.5-5.9-4.7-1.5-10.6-4.7-13.4-7-2.5-2.3-7.8-6.3-11.6-8.7-21.6-13.3-35.4-23.5-35.4-26 0-1.5-3-4.7-6.6-6.8-3.6-2.1-8.7-7.4-11.6-11.5-2.8-4.2-7-8-9.4-8.9-2.3-0.6-4.2-2.5-4.2-3.8 0-2.3-8.9-15.6-21.4-31.7-2.5-3.4-6.8-11.5-9.5-17.8-2.6-6.6-6.2-13.6-8.1-15.9-1.9-2.2-3.4-5.5-3.4-7.7 0-2.1-1.2-5.5-2.9-7.8-1.5-2.3-3.4-7.8-4.3-12.1-0.8-4.2-2.3-8-3.6-8.5-3.2-1-7.8-21.4-11.4-51.4-1.9-15.3-4.9-32.3-6.4-38-4.2-14.2-4.2-60.4 0-74.6 1.7-5.7 4-19.5 5.3-30.5 3.8-33.2 8.3-54.4 13.8-65.4 3-5.8 5.3-11.9 5.3-13.6 0-1.7 2.7-8.5 6.1-14.8 3.4-6.4 7.2-15.1 8.7-19.5 1.5-4.3 5.1-10.8 8.5-14.4 3.2-3.9 6.3-9.4 7-12.3 1.7-7.2 34.7-43.7 53.8-59.6 7.8-6.7 19.7-15.4 26.1-19.5 15.6-9.9 52.5-28.1 60.4-30 3.6-0.7 9.7-3.2 13.7-5.1 10.2-5.3 22.5-7.9 50.9-10.6 13.3-1.3 26.3-3.2 28.6-4.3 2.3-1 6.1-2.3 8.5-2.9 7.6-1.9 59.3 0 63.5 2.5zm-31.8 88.2c-46.2-0.5-51.9 0-61.4 4.4-3.4 1.5-12.9 4.5-21.2 6.4-8 1.7-16.1 4.6-18 6.3-1.9 1.7-8.7 5.3-15 8.3-6.4 2.7-17.6 9.7-24.8 15.4-7.2 5.6-15.3 11.7-18.1 13.6-18.6 13.4-47.4 62.1-54.6 92.8-2.3 10-5.3 19.3-6.6 21-1.5 1.7-3 13.6-3.4 28.4l-1 25.4 203.2-1c111.8-0.7 205.9-2 209.1-2.8 3.8-0.9 6.8-3.6 8.3-7 3.1-8.3 3.3-39.2 0-43-1.5-1.9-4.1-12.3-6-23.1-3.8-24.2-6.3-32.8-12.5-41.1-2.5-3.6-6.1-10-7.8-14.6-3.4-9.1-41.5-49-49-51.3-2.5-0.9-7-3.6-9.5-6.4-2.8-2.7-8.5-5.9-12.7-7.4-4.5-1.3-11.7-4.6-16.3-7.2-4.7-2.5-13.2-5.9-19.1-7.2-5.7-1.5-12.9-4.2-15.9-6.1-4.4-3-11.9-3.6-47.7-3.8z"/>
			<path id="Layer" class="s0" d="m4577.7 187.3c-2.9 0.6-6.1 1.7-7.4 2.7-1 0.9-9.7 2.4-19.1 3.2-23.3 1.9-45.5 6.6-49.7 10.6-2 1.7-4.9 3.2-6.6 3.2-1.7 0-6.8 1.9-11.5 4.2-4.6 2.4-9.5 4.3-11 4.3-1.5 0-2.7 0.8-2.7 2.1 0 1-5.5 4.9-12.3 8.2-11.9 6-16.1 9.2-36.9 27.8-11.2 10-31.3 34.1-31.3 37.7 0 1.1-3 5.7-6.6 10.2-3.6 4.4-7 10.8-7.6 14-0.7 2.9-3.2 7.6-6 10.1l-4.6 4.5-1.3-8.1c-0.9-4.4-1.9-34.1-2.8-65.9l-1.4-57.6h-52.8-52.6v117.2c0 64.6-0.6 211.9-1.4 327.6l-1.3 210.1 52.1-0.6c28.6-0.4 52.8-1.5 53.8-2.3 0.9-1.1 2.4-83.1 3.2-182.2 1.5-194.3 3.2-238.8 10.2-252.2 2.3-4.4 5.3-12.5 6.6-18 1-5.5 4.2-13.3 6.9-17.4 2.8-4 6.6-10.8 8.5-15 1.9-4.3 8.7-14 15.1-21.6 22.8-27.8 54.2-49 81.5-55.5 8.7-2.2 20.2-5.8 25.3-7.9 8.4-3.8 13.1-4.2 47.6-3.4 29.5 0.7 39.9 1.7 44.7 4.1 3.6 1.9 11.3 4.4 17 5.9 14.4 3.4 33.3 13.5 49.1 26.1 15.3 12 43.1 41.1 43.1 45.1 0 1.5 2.1 5.1 4.4 8.2 5.5 7 14 32.7 15.9 48.1 0.6 6.4 3 13.8 4.7 16.8 2.9 4.6 3.6 18.6 4.8 104.9 0.9 54.6 1.7 147.4 1.7 205.9 0.2 103 0.5 106.6 4.3 108.7 2.5 1.3 23.3 2.1 52.9 2.1h49l-0.2-97c-0.2-193.7-3.2-363.4-6.4-369.1-1.5-3-4-11.9-5.5-19.9-1.3-8.3-5.9-21.6-10-29.7-4-8.3-8.4-18.6-9.5-22.9-1-4.4-4-10.6-6.3-13.8-23.6-30.7-31.4-39.8-45.6-52.5-9.1-8.3-21-17.6-26.3-21-5.5-3.4-11.6-7.8-13.7-9.9-2.2-2.4-5.6-4.1-7.5-4.1-2.1 0-5.7-1.4-8-3.1-2.1-1.7-5.9-3.2-8.1-3.2-2.3 0-5.7-1.3-7.4-2.8-4.9-4.2-17.6-7.2-40.5-10.1-11-1.3-21.4-3.4-22.8-4.7-3-2.3-48.3-4-57.7-2.1z"/>
			<path id="Layer" class="s0" d="m939.2 1033.3c-77.9 9.8-124.6 67.6-124.6 154.7 0 78 38 133.3 103.2 150.7 13.4 3.6 22.7 4.4 48.3 4.4 37.8 0 55.6-3.8 83.7-17.8l18-9.1 0.7-20.8c0.6-20.1-0.7-23.7-6-17.3-3.3 4-6.3 4-6.3 0 0-2.4-3.4-0.9-11 5.1-25.5 18.8-56 29-81.6 26.6-29.7-2.5-48.1-10.5-65.7-29.2-20.5-21.8-29-48.5-29-92.6 0-46.4 9.5-74.1 32.8-96.4 29.7-28.4 74.2-33.9 115.7-14.8 8.9 4.2 21.4 11.2 27.6 16.1 7.8 5.7 11.2 7.4 11.2 5.1 0-4.1 3-4.1 6.3 0 5.3 6.3 6.6 2.7 6-17.6l-0.7-20.6-15-7.8c-30.9-16.3-75.2-23.5-113.6-18.7z"/>
			<path id="Layer" class="s0" d="m1335 1033.3c-16.5 2.2-36.6 8.7-48.1 16.1-26 16.4-40.2 52.2-33.7 84.6 7.7 38.1 30.8 54.4 96.9 68.4 33 7.2 44.5 11.5 55.5 20.8 19.5 16.5 20.1 51.3 1 69.7-3.3 3.2-11.4 8.3-17.7 11.4-10.6 5.1-13.8 5.5-35 5.3-26.7-0.4-50-6.1-75.2-18.8-8.3-4-14.9-6.4-14.9-5.1 0 1.5-1.9 1.9-5.3 1.1l-5.3-1.3v19.9 20.1l16.8 5.3c29.4 9.3 51.7 12.5 84.9 12.5 34.8 0 54.7-3.4 72.9-12.5 30.5-15 45.8-39.8 45.8-75 0-39.8-18.2-64.8-59.3-80.9-5.1-2.1-24.8-7.2-43.5-11.5-34.3-7.6-49.5-12.9-56.7-19.5-15.1-13.5-13.8-47.8 2.1-62.3 7.4-6.7 27.1-14.1 40.9-15.4 17.8-1.7 41.9 2.7 67.3 12.1 10.9 4.2 20.2 6.5 20.8 5.7 0.6-1.1 3-1.1 5.1 0.2 2.1 1.1 4.4 2.1 5.3 2.1 0.6 0 0.8-8.7 0.6-19.5l-0.6-19.5-12.7-3.8c-30.1-9.1-79.3-13.8-107.9-10.2z"/>
			<path id="Layer" fill-rule="evenodd" class="s0" d="m1838.3 1035.7c6.3 1.2 18.2 5.5 26.2 9.3 37.3 17.2 62.5 49.8 73.3 95.6 5.6 23 6 66.3 0.9 90.9-11.7 55.9-47.9 96.1-97.9 108.4-20.1 4.9-66.7 4.7-85.4-0.2-24.8-6.8-39.8-15.4-58.5-34.1-19.5-19.5-29.2-37.1-37.3-65.9-6.5-24.1-6.5-79.2 0-103.4 8.1-29.2 18.1-46.8 37.3-65.9 22.5-22.4 43-32.4 75.5-37.3 14.4-2.1 50.6-0.6 65.9 2.6zm-126.5 109.1c-4.9 20.1-5.1 66.5-0.2 86 8.4 34.1 27.5 59.8 53.8 72.3 12.9 6.1 16.3 6.7 33.5 6.7 23-0.2 37.2-5.7 53.8-21.1 13.7-13 21.8-25.9 29.2-46.7 5.5-16.1 5.9-18.8 5.7-54 0-34.3-0.4-38.3-5.5-53.4-2.9-9.1-8.5-21.2-12.3-27.1-9.9-15.5-27.5-30.7-41.7-36-51.3-19.3-101.5 12.3-116.3 73.3z"/>
			<path id="Layer" fill-rule="evenodd" class="s0" d="m3061.3 1036.7c35.8 9.1 66.3 34.6 82.8 69.1 13.4 28 17.2 46.6 17 84.3-0.5 36.3-4.5 54.7-18 82.5-16.2 32.4-46.7 57.4-82.5 67.1-19 5.1-67.6 5.1-86.8 0-36.9-9.9-66.8-34.9-83.5-69.5-13-26.9-17-46.6-17-82.2 0-35.6 4-55.3 17-82.2 19.7-40.9 55.5-66.5 101.5-72.7 17.8-2.3 54-0.4 69.5 3.6zm-64.2 31.8c-33.3 8.9-58.5 39-67 79.3-4.9 23.3-4.2 64.4 1.1 85.3 8.7 33.3 27.3 57.9 52.9 70.2 12.3 5.7 16.1 6.5 33.1 6.5 16.9 0 20.5-0.6 33-6.5 18.3-8.7 33.5-24.2 43.3-43.7 9.9-20.3 14-41.3 14-71.6 0-30.1-4.1-51.3-13.8-71-12.7-25.6-32-41.9-57.4-48.5-15.3-4-24-4-39.2 0z"/>
			<path id="Layer" class="s0" d="m3878.1 1033.3c-28.8 3.6-47.7 12.3-63.8 29.5-15.7 16.7-19.3 26.5-19.3 54.2-0.2 21.4 0.2 24.4 5.7 35.4 11.3 22.7 32.3 36 72.9 45.6 61.7 14.4 73.6 19.7 82.7 35.4 9.9 18 7.8 41.1-5.1 56.1-8.5 10-16.1 14.4-31.4 18.4-25.6 7-68.6-0.8-103.2-18.4-4.6-2.3-9.9-3.8-11.6-3.2-1.7 0.7-4.9 0.2-7.2-0.8-3.8-2.1-4-1.3-4 18.6v21l18.6 5.5c40.7 12.3 70.3 15.7 105.7 12.3 46.4-4.4 73.1-18 87.1-44.1 17.6-33 11.9-78.6-12.5-102.3-16.1-15.7-31.3-21.8-82.6-33.9-36.7-8.5-48.3-12.9-56.6-21.6-13.1-14.2-11-42.6 4.2-58.3 10.6-11 26.7-16.1 50.5-16.1 21.8-0.2 37.3 3.2 62.1 13.1 9.1 3.6 15.6 5.3 16.5 4.1 0.8-1.5 2.9-1.3 5.9 0.2 4.5 2.5 4.5 2.1 4.5-17.4v-19.9l-16.4-4.5c-31.3-8.4-75.4-12.3-102.7-8.9z"/>
			<path id="Layer" fill-rule="evenodd" class="s0" d="m1 1037.6h61c80.3 0 96.4 3.4 119.1 24.6 13.1 12.2 20.3 26.9 23.7 47.8 4.9 32.2-4 64.9-22.4 81.8-20.2 18.5-38.2 23.3-91.8 25.2l-38.7 1.3v120.2h-50.9zm83.3 34.3l-32.4-0.9v112.8h26c40.7 0 57.9-7.2 68.2-28.4 6.4-13 7.9-33.3 3.4-49-2.9-11-13.1-23.3-24.1-29-7.9-4-13.2-4.9-41.1-5.5z"/>
			<path id="Layer" fill-rule="evenodd" class="s0" d="m261.6 1037.6h60c32.8 0 65.7 1 73.1 2.1 41.3 6.8 64.6 28.8 70.3 67.2 6 38.7-9.5 72.4-39.6 85.8l-9.3 4.2 9.5 5.9c14.6 9.4 26.5 27.6 54.3 82.9 13.9 27.8 25.4 51.1 25.4 51.7 0 0.6-11.9 1.1-26.5 1.1h-26.3l-25.6-50.7c-22.7-44.9-26.9-52.1-36.9-61-13.8-12.7-23.9-15.5-55.5-15.5h-22v127.2h-50.9zm83.3 34.3l-32.4-0.9v106.8l32.4-0.8c35.4-0.9 42.4-2.8 54.4-15.1 10.2-10.4 13.4-21.8 12.3-42.8-0.8-15.6-1.7-19.3-7.2-26.9-3.6-5.3-10.4-11-16.7-14.2-9.5-5.1-13.1-5.5-42.8-6.1z"/>
			<path id="Layer" class="s0" d="m560.4 1188v150.5h101.7 101.7v-17-16.9h-76.3-76.3v-55.1-55.1h72.1 72v-17-16.9h-72-72.1v-44.5-44.5h75.3 75.2v-17-16.9h-100.7-100.6z"/>
			<path id="Layer" class="s0" d="m1132.5 1188v150.5h25.4 25.4v-150.5-150.4h-25.4-25.4z"/>
			<path id="Layer" class="s0" d="m1537.2 1188v150.5h26.5 26.4v-150.5-150.4h-26.4-26.5z"/>
			<path id="Layer" class="s0" d="m2007.6 1188v150.5h25.4 25.4l0.4-114.3 0.7-114.4 60.4 114.2 60.3 114.2 32.5 0.3h32.2v-150.5-150.4h-24.4-24.4v114.8c0 63.2-0.6 114-1.4 113.2-0.9-0.7-28.4-52.2-61.3-114.2l-59.7-112.8-33.1-0.6-33-0.6z"/>
			<path id="Layer" class="s0" d="m2444 1038.6c0 0.7 16.8 68.3 37.3 150.5l37.3 149.4h31.2 30.9l28.6-116.6c15.7-64.2 29-117.6 29.7-118.6 0.6-1.1 14.2 51 29.9 116.1l28.6 118 30.9 0.6 31.1 0.7 2.2-8.1c7.2-27.1 72.2-289.2 72.2-290.9 0-1.3-9.7-2.1-25.2-2.1-22.3 0-25.4 0.4-26.5 3.6-0.6 2.1-13.1 52.3-27.5 111.9-14.7 59.3-27.4 109.7-28.4 111.8-1.1 2.8-11-33.7-30.1-111.6l-28.6-115.7-28.6 0.4-28.6 0.6-27.6 112.3c-15.2 61.7-28.4 113.8-28.8 115.5-0.6 1.7-13.3-45.5-28.2-104.9-14.8-59.5-27.7-111.6-29-116.1l-2.1-7.8h-25.2c-14 0-25.5 0.4-25.5 1z"/>
			<path id="Layer" fill-rule="evenodd" class="s0" d="m3225.9 1037.2l68.4 0.8c58.1 0.8 70 1.5 79.9 4.7 34.1 11.2 50.7 30.7 55.7 66.3 5.6 37.7-9.1 69.5-38.3 82.8l-11.7 5.3 6.2 3.2c16.7 8.5 26.3 22.5 59.9 87.7l25.9 50.5h-54.7l-22.4-45.2c-38-76.3-44.5-82-95.8-82h-22.2v127.2h-50.9zm79 34.3h-28.1v105.9h28.1c42.4 0 57.5-6.3 68-28.6 6.2-12.7 5.6-37.7-1-51-5.7-11.7-17.8-21.2-30.7-24.2-4.5-1.1-21-2.1-36.3-2.1z"/>
			<path id="Layer" class="s0" d="m3524.7 1188v150.5h25.4 25.4v-67.2-67.4l67.4 67.4 67.2 67.2h31.3 31.6l-78.6-79.9c-43.2-43.9-78.6-80.5-78.6-81.4 0-0.8 30.3-29.9 67.3-64.6 36.9-34.6 70-65.7 73.6-69.1l6.3-5.9h-31.8l-31.7 0.2-61.5 58-61.4 58.1-0.7-58.1-0.4-58.2h-25.4-25.4z"/>
			<path id="Layer" class="s0" d="m4221.8 1188v150.5h99.5 99.6v-17-16.9h-73.1-73.1v-133.5-133.5h-26.5-26.4z"/>
			<path id="Layer" class="s0" d="m4463.3 1188v150.5h99.6 99.6v-17-16.9l-73.5-0.5-73.8-0.6-0.6-133.1-0.4-132.8h-25.5-25.4z"/>
			<path id="Layer" fill-rule="evenodd" class="s0" d="m4704.9 1037.6h61c80.3 0 96.4 3.4 119.1 24.6 13.3 12.2 20.3 26.9 23.7 48.1 4.9 32.2-4 64.6-22.5 81.5-20.1 18.7-37.5 23.3-90.7 25.2l-39.8 1.3v120.2h-50.8zm83.2 34.3l-32.4-0.9v112.8h26.1c40.9 0 57.8-7.2 68.4-28.9 4.9-9.9 5.9-14.6 5.7-28.1-0.2-24.8-8.2-39.7-27.1-49.6-7.2-3.8-12.9-4.7-40.7-5.3z"/>
		</g>
		<path id="Layer" class="s1" d="m1512.8 185.4c-5.3 1.5-6.4 2.5-5.9 7.6 0.2 3.4 3.8 10.4 8 15.7 4 5.3 7.4 10.4 7.4 11.2 0 1.1 1.9 4 4.5 6.6 13.1 14.8 25.6 32.2 36.2 50.8 1.9 3.6 5.5 8.3 7.9 10.4 2.5 2.3 4.4 5.5 4.4 7 0 1.5 2.6 4.9 5.5 7.8 3 2.8 8.3 10 11.7 15.9 3.4 6 8 12.5 10.4 14.7 2.3 2.1 4.2 4.8 4.2 6.3 0 1.5 1.9 4.3 4.4 6.6 2.6 2.1 8.1 10.2 12.5 17.8 4.5 7.6 12.1 18.4 17 24.3 4.9 5.8 11.2 15.3 14.2 21.2 3 5.8 6.3 11.1 7.4 11.5 1.1 0.4 6.6 7.4 11.9 15.7 5.5 8 12.3 18.4 15.2 22.8 3 4.3 9.6 13.8 14.9 20.8 28.1 38.1 28.8 39.8 21.4 49.2-2.2 2.7-6 9.1-8.5 13.9-2.3 4.9-6.4 10-8.7 11.3-2.3 1.2-4.2 3.6-4.2 5.1 0 1.4-3 7-6.8 12-3.6 5.1-8.1 11.7-9.6 14.7-1.4 2.9-5 8-8 11.6-6.8 7.6-24.4 34.3-24.4 36.7 0 1-3.4 4.8-7.4 8.9-4 4-7.4 8.2-7.4 9.5 0 1.3-2.8 4.9-5.9 8.1-3.4 3.1-8.1 9.9-10.6 14.8-2.6 5.1-7 11.4-10 14.2-3 2.7-5.3 6.6-5.3 8.5 0 1.9-1.9 5.3-4.4 7.6-2.6 2.1-6.8 8.5-9.4 13.8-2.7 5.3-6.5 10.8-8.4 12.5-1.9 1.4-4.7 5.9-6.4 9.9-1.7 3.8-3.8 7-5.1 7-1 0-5.7 5.9-10.4 13.1-4.6 7.5-10.3 15.3-12.9 17.4-2.3 2.4-4.4 5.3-4.4 6.8 0 1.5-2.8 5.7-6.4 9.3-3.4 3.6-6.3 7.7-6.3 9.3 0 1.5-2.6 4.9-5.6 7.9-2.9 2.7-7.4 8.3-9.7 12.5-2.3 4-6.8 11-9.8 15.5-2.9 4.2-4.6 8.6-3.8 9.5 0.9 0.8 51.1 1.7 111.3 2.1l109.7 0.6 8.1-9.1c4.2-5 9.9-13.3 12.7-18.6 2.5-5.3 6.8-11.5 9.3-13.6 2.6-2.3 4.5-5.1 4.5-6.5 0-1.5 1.9-4.3 4.4-6.6 2.6-2.1 7-8.3 10-13.6 2.9-5.3 7.4-11.8 10.1-14.8 4.3-4.7 9.4-12.7 21.7-32.6 1.9-3.4 8.6-12.3 15-20.2 6.1-7.6 13.8-18.2 16.7-23.5 3-5.3 8.5-13.5 12.5-18.4 3.9-4.9 7-9.5 7-10.6 0-1.1 4.3-7.6 9.6-14.2 5.3-6.8 9.5-13.1 9.5-14 0-0.8 7.4-11 16.5-22.4 9.1-11.7 20.2-27.2 24.6-34.6 4.5-7.6 11.9-18 16.5-23.3 4.7-5.3 9.8-12.5 11.5-16.1 1.5-3.4 4.9-8.9 7.4-12.1 5.9-7.2 4-13.3-10.2-32-5.5-7.4-11.8-16.3-14-19.7-1.9-3.4-7.8-11.8-13.1-18.8-5.1-7-11.4-16.3-13.8-20.8-2.5-4.4-6.7-10-9.5-12.5-2.8-2.3-6.1-7-7.4-10.4-1.5-3.4-3.4-6.1-4.5-6.1-1 0-3.4-3.2-5.3-7-1.9-3.6-6.7-10.8-10.8-15.7-3.8-4.9-8.4-12.3-10.1-16.5-1.9-4-4.3-7.4-5.3-7.4-1.1 0-4.9-5.1-8.3-11.3-3.4-5.9-8.3-13.3-10.8-16.3-5.1-5.9-13.1-17.1-18.4-26.3-2.2-3.1-6.6-9.7-10.2-14.4-3.4-4.8-7.6-11.2-9.3-14.2-1.5-2.9-5.1-7.8-7.7-10.8-2.7-2.9-6.3-8.2-8-11.6-1.9-3.6-6.2-9.6-9.8-13.4-3.6-3.8-6.5-8.4-6.5-10.1 0-1.7-1.5-3.6-3.2-4.5-1.9-0.6-5.3-4.9-7.4-9.3-2.4-4.5-6-9.3-8.3-10.8-2.3-1.7-5.3-5.3-6.6-8.5-1.4-3-6.7-7.6-12-10.2-9.6-4.6-10.8-4.8-107.5-5.5-53.6-0.4-100.4 0-104 0.9z"/>
		<path id="Layer copy" class="s1" d="m1809.4 185.4c-5.3 1.5-6.3 2.5-5.9 7.6 0.2 3.4 3.8 10.4 8.1 15.7 4 5.3 7.4 10.4 7.4 11.2 0 1.1 1.9 4 4.4 6.6 13.2 14.8 25.7 32.2 36.3 50.8 1.9 3.6 5.5 8.3 7.8 10.4 2.5 2.3 4.5 5.5 4.5 7 0 1.5 2.5 4.9 5.5 7.8 2.9 2.8 8.2 10 11.6 15.9 3.4 6 8.1 12.5 10.4 14.7 2.3 2.1 4.2 4.8 4.2 6.3 0 1.5 1.9 4.3 4.5 6.6 2.5 2.1 8 10.2 12.5 17.8 4.4 7.6 12.1 18.4 16.9 24.3 4.9 5.8 11.3 15.3 14.2 21.2 3 5.8 6.4 11.1 7.4 11.5 1.1 0.4 6.6 7.4 11.9 15.7 5.5 8 12.3 18.4 15.3 22.8 2.9 4.3 9.5 13.8 14.8 20.8 28.2 38.1 28.8 39.8 21.4 49.2-2.1 2.7-5.9 9.1-8.5 13.9-2.3 4.9-6.3 10-8.7 11.3-2.3 1.2-4.2 3.6-4.2 5.1 0 1.4-3 7-6.8 12-3.6 5.1-8 11.7-9.5 14.7-1.5 2.9-5.1 8-8.1 11.6-6.7 7.6-24.3 34.3-24.3 36.7 0 1-3.4 4.8-7.4 8.9-4.1 4-7.5 8.2-7.5 9.5 0 1.3-2.7 4.9-5.9 8.1-3.4 3.1-8 9.9-10.6 14.8-2.5 5.1-7 11.4-10 14.2-2.9 2.7-5.2 6.6-5.2 8.5 0 1.9-2 5.3-4.5 7.6-2.5 2.1-6.8 8.5-9.3 13.8-2.8 5.3-6.6 10.8-8.5 12.5-1.9 1.4-4.7 5.9-6.4 9.9-1.6 3.8-3.8 7-5 7-1.1 0-5.8 5.9-10.4 13.1-4.7 7.5-10.4 15.3-12.9 17.4-2.4 2.4-4.5 5.3-4.5 6.8 0 1.5-2.7 5.7-6.4 9.3-3.3 3.6-6.3 7.7-6.3 9.3 0 1.5-2.6 4.9-5.5 7.9-3 2.7-7.4 8.3-9.8 12.5-2.3 4-6.7 11-9.7 15.5-3 4.2-4.7 8.6-3.8 9.5 0.8 0.8 51 1.7 111.2 2.1l109.8 0.6 8-9.1c4.3-5 10-13.3 12.7-18.6 2.6-5.3 6.8-11.5 9.4-13.6 2.5-2.3 4.4-5.1 4.4-6.5 0-1.5 1.9-4.3 4.5-6.6 2.5-2.1 7-8.3 9.9-13.6 3-5.3 7.4-11.8 10.2-14.8 4.2-4.7 9.3-12.7 21.6-32.6 1.9-3.4 8.7-12.3 15-20.2 6.2-7.6 13.8-18.2 16.8-23.5 3-5.3 8.5-13.5 12.5-18.4 3.8-4.9 7-9.5 7-10.6 0-1.1 4.2-7.6 9.5-14.2 5.3-6.8 9.5-13.1 9.5-14 0-0.8 7.5-11 16.6-22.4 9.1-11.7 20.1-27.2 24.6-34.6 4.4-7.6 11.8-18 16.5-23.3 4.6-5.3 9.7-12.5 11.4-16.1 1.5-3.4 4.9-8.9 7.4-12.1 6-7.2 4.1-13.3-10.1-32-5.5-7.4-11.9-16.3-14-19.7-1.9-3.4-7.9-11.8-13.2-18.8-5-7-11.4-16.3-13.7-20.8-2.6-4.4-6.8-10-9.6-12.5-2.7-2.3-6.1-7-7.4-10.4-1.5-3.4-3.4-6.1-4.4-6.1-1.1 0-3.4-3.2-5.3-7-1.9-3.6-6.8-10.8-10.8-15.7-3.8-4.9-8.5-12.3-10.2-16.5-1.9-4-4.2-7.4-5.3-7.4-1.1 0-4.9-5.1-8.3-11.3-3.4-5.9-8.2-13.3-10.8-16.3-5.1-5.9-13.1-17.1-18.4-26.3-2.1-3.1-6.6-9.7-10.2-14.4-3.4-4.8-7.6-11.2-9.3-14.2-1.5-2.9-5.1-7.8-7.6-10.8-2.8-2.9-6.4-8.2-8.1-11.6-1.9-3.6-6.1-9.6-9.7-13.4-3.6-3.8-6.6-8.4-6.6-10.1 0-1.7-1.5-3.6-3.2-4.5-1.9-0.6-5.3-4.9-7.4-9.3-2.3-4.5-5.9-9.3-8.2-10.8-2.4-1.7-5.3-5.3-6.6-8.5-1.5-3-6.8-7.6-12.1-10.2-9.5-4.6-10.8-4.8-107.4-5.5-53.6-0.4-100.5 0-104.1 0.9z"/>
	</g>
</svg>